<svg xmlns="http://www.w3.org/2000/svg" xmlns:xlink="http://www.w3.org/1999/xlink" width="300" zoomAndPan="magnify" viewBox="0 0 224.87999 225" height="300" preserveAspectRatio="xMidYMid meet" version="1.0"><defs><clipPath id="b33eecfde5"><path d="M 73.601562 74 L 151.558594 74 L 151.558594 151.621094 L 73.601562 151.621094 Z M 73.601562 74 " clip-rule="nonzero"/></clipPath></defs><g clip-path="url(#b33eecfde5)"><path fill="#ff210b" d="M 112.582031 151.90625 C 111.199219 151.910156 109.871094 151.644531 108.597656 151.109375 C 107.324219 150.578125 106.203125 149.820312 105.230469 148.835938 L 76.925781 120.546875 C 76.445312 120.066406 76.011719 119.539062 75.632812 118.972656 C 75.253906 118.40625 74.933594 117.804688 74.671875 117.175781 C 74.410156 116.542969 74.210938 115.894531 74.078125 115.222656 C 73.945312 114.554688 73.878906 113.878906 73.878906 113.195312 C 73.878906 112.511719 73.945312 111.835938 74.078125 111.164062 C 74.210938 110.496094 74.410156 109.847656 74.671875 109.214844 C 74.933594 108.585938 75.253906 107.984375 75.632812 107.417969 C 76.011719 106.847656 76.445312 106.324219 76.925781 105.839844 L 105.226562 77.542969 C 105.726562 77.09375 106.265625 76.695312 106.839844 76.34375 C 107.414062 75.992188 108.015625 75.699219 108.640625 75.457031 C 109.269531 75.21875 109.914062 75.035156 110.578125 74.914062 C 111.238281 74.792969 111.90625 74.730469 112.578125 74.730469 C 113.25 74.730469 113.917969 74.792969 114.582031 74.914062 C 115.242188 75.035156 115.886719 75.21875 116.515625 75.457031 C 117.144531 75.699219 117.746094 75.992188 118.320312 76.34375 C 118.894531 76.695312 119.429688 77.09375 119.933594 77.542969 L 148.230469 105.839844 C 148.714844 106.324219 149.148438 106.847656 149.527344 107.417969 C 149.90625 107.984375 150.226562 108.582031 150.488281 109.214844 C 150.75 109.84375 150.949219 110.496094 151.082031 111.164062 C 151.214844 111.835938 151.28125 112.511719 151.28125 113.195312 C 151.28125 113.878906 151.214844 114.554688 151.082031 115.222656 C 150.949219 115.894531 150.75 116.542969 150.488281 117.175781 C 150.226562 117.804688 149.90625 118.40625 149.527344 118.972656 C 149.148438 119.539062 148.714844 120.066406 148.230469 120.546875 L 119.933594 148.835938 C 118.960938 149.820312 117.839844 150.578125 116.566406 151.109375 C 115.289062 151.640625 113.960938 151.910156 112.582031 151.90625 Z M 112.582031 151.90625 " fill-opacity="1" fill-rule="nonzero"/></g></svg>