<svg xmlns="http://www.w3.org/2000/svg" xmlns:xlink="http://www.w3.org/1999/xlink" width="300" zoomAndPan="magnify" viewBox="0 0 224.87999 225" height="300" preserveAspectRatio="xMidYMid meet" version="1.0"><defs><clipPath id="3b57ff4e27"><path d="M 72.222656 73 L 152.429688 73 L 152.429688 152.492188 L 72.222656 152.492188 Z M 72.222656 73 " clip-rule="nonzero"/></clipPath></defs><g clip-path="url(#3b57ff4e27)"><path fill="#00a2ff" d="M 112.328125 152.789062 C 110.90625 152.789062 109.539062 152.515625 108.230469 151.96875 C 106.917969 151.421875 105.765625 150.640625 104.765625 149.628906 L 75.644531 120.523438 C 75.148438 120.027344 74.703125 119.488281 74.3125 118.902344 C 73.921875 118.316406 73.59375 117.703125 73.324219 117.050781 C 73.054688 116.402344 72.851562 115.734375 72.714844 115.046875 C 72.578125 114.355469 72.507812 113.660156 72.507812 112.957031 C 72.507812 112.253906 72.578125 111.558594 72.714844 110.871094 C 72.851562 110.179688 73.054688 109.511719 73.324219 108.863281 C 73.59375 108.214844 73.921875 107.597656 74.3125 107.011719 C 74.703125 106.429688 75.148438 105.890625 75.644531 105.390625 L 104.761719 76.277344 C 105.277344 75.816406 105.828125 75.402344 106.417969 75.042969 C 107.011719 74.683594 107.628906 74.378906 108.277344 74.132812 C 108.921875 73.882812 109.585938 73.699219 110.265625 73.570312 C 110.949219 73.445312 111.632812 73.382812 112.324219 73.382812 C 113.019531 73.382812 113.703125 73.445312 114.386719 73.570312 C 115.066406 73.699219 115.730469 73.882812 116.375 74.132812 C 117.023438 74.378906 117.640625 74.683594 118.230469 75.042969 C 118.824219 75.402344 119.375 75.816406 119.890625 76.277344 L 149.007812 105.390625 C 149.503906 105.886719 149.949219 106.429688 150.339844 107.011719 C 150.730469 107.597656 151.058594 108.214844 151.328125 108.863281 C 151.597656 109.511719 151.800781 110.179688 151.9375 110.871094 C 152.078125 111.558594 152.144531 112.253906 152.144531 112.957031 C 152.144531 113.660156 152.078125 114.355469 151.9375 115.046875 C 151.800781 115.734375 151.597656 116.402344 151.328125 117.054688 C 151.058594 117.703125 150.730469 118.320312 150.339844 118.902344 C 149.949219 119.488281 149.503906 120.027344 149.007812 120.523438 L 119.890625 149.628906 C 118.894531 150.640625 117.738281 151.417969 116.425781 151.964844 C 115.113281 152.515625 113.75 152.789062 112.328125 152.789062 Z M 112.328125 152.789062 " fill-opacity="1" fill-rule="nonzero"/></g></svg>