<svg xmlns="http://www.w3.org/2000/svg" xmlns:xlink="http://www.w3.org/1999/xlink" width="300" zoomAndPan="magnify" viewBox="0 0 224.87999 225" height="300" preserveAspectRatio="xMidYMid meet" version="1.0"><defs><clipPath id="8acac71057"><path d="M 72.222656 71 L 155.429688 71 L 155.429688 153.984375 L 72.222656 153.984375 Z M 72.222656 71 " clip-rule="nonzero"/></clipPath></defs><g clip-path="url(#8acac71057)"><path fill="#04df1a" d="M 113.828125 154.289062 C 112.351562 154.292969 110.9375 154.007812 109.574219 153.441406 C 108.214844 152.871094 107.019531 152.0625 105.984375 151.011719 L 75.773438 120.820312 C 75.257812 120.304688 74.796875 119.742188 74.390625 119.136719 C 73.988281 118.53125 73.644531 117.890625 73.367188 117.21875 C 73.085938 116.546875 72.875 115.851562 72.734375 115.136719 C 72.589844 114.421875 72.519531 113.699219 72.519531 112.972656 C 72.519531 112.242188 72.589844 111.519531 72.734375 110.804688 C 72.875 110.089844 73.085938 109.398438 73.367188 108.722656 C 73.644531 108.050781 73.988281 107.410156 74.390625 106.804688 C 74.796875 106.199219 75.257812 105.636719 75.773438 105.121094 L 105.976562 74.917969 C 106.511719 74.441406 107.085938 74.011719 107.699219 73.640625 C 108.3125 73.265625 108.953125 72.949219 109.625 72.691406 C 110.292969 72.4375 110.984375 72.242188 111.6875 72.113281 C 112.394531 71.984375 113.105469 71.917969 113.824219 71.917969 C 114.542969 71.917969 115.253906 71.984375 115.960938 72.113281 C 116.667969 72.242188 117.355469 72.4375 118.027344 72.691406 C 118.695312 72.949219 119.339844 73.265625 119.953125 73.640625 C 120.566406 74.011719 121.140625 74.441406 121.671875 74.917969 L 151.878906 105.121094 C 152.394531 105.636719 152.855469 106.199219 153.257812 106.804688 C 153.664062 107.410156 154.007812 108.050781 154.285156 108.722656 C 154.566406 109.394531 154.777344 110.089844 154.917969 110.804688 C 155.0625 111.519531 155.132812 112.242188 155.132812 112.972656 C 155.132812 113.699219 155.0625 114.421875 154.917969 115.136719 C 154.777344 115.851562 154.566406 116.546875 154.285156 117.21875 C 154.007812 117.894531 153.664062 118.53125 153.257812 119.136719 C 152.855469 119.746094 152.394531 120.304688 151.878906 120.820312 L 121.671875 151.011719 C 120.636719 152.0625 119.4375 152.871094 118.078125 153.4375 C 116.71875 154.007812 115.300781 154.289062 113.828125 154.289062 Z M 113.828125 154.289062 " fill-opacity="1" fill-rule="nonzero"/></g></svg>