<svg xmlns="http://www.w3.org/2000/svg" xmlns:xlink="http://www.w3.org/1999/xlink" width="300" zoomAndPan="magnify" viewBox="0 0 224.87999 225" height="300" preserveAspectRatio="xMidYMid meet" version="1.0"><defs><clipPath id="id1"><path d="M 75.574219 75.632812 L 149.035156 75.632812 L 149.035156 149.09375 L 75.574219 149.09375 Z M 75.574219 75.632812 " clip-rule="nonzero"/></clipPath><clipPath id="id2"><path d="M 75.574219 75.632812 L 149.035156 75.632812 L 149.035156 149.09375 L 75.574219 149.09375 Z M 75.574219 75.632812 " clip-rule="nonzero"/></clipPath><clipPath id="id3"><path d="M 112.304688 75.632812 C 92.019531 75.632812 75.574219 92.078125 75.574219 112.363281 C 75.574219 132.648438 92.019531 149.09375 112.304688 149.09375 C 132.589844 149.09375 149.035156 132.648438 149.035156 112.363281 C 149.035156 92.078125 132.589844 75.632812 112.304688 75.632812 " clip-rule="nonzero"/></clipPath><clipPath id="id4"><path d="M 92.910156 92.96875 L 131.890625 92.96875 L 131.890625 131.949219 L 92.910156 131.949219 Z M 92.910156 92.96875 " clip-rule="nonzero"/></clipPath></defs><g clip-path="url(#id1)"><path fill="#234075" d="M 112.304688 75.632812 C 92.019531 75.632812 75.574219 92.078125 75.574219 112.363281 C 75.574219 132.648438 92.019531 149.09375 112.304688 149.09375 C 132.589844 149.09375 149.035156 132.648438 149.035156 112.363281 C 149.035156 92.078125 132.589844 75.632812 112.304688 75.632812 " fill-opacity="1" fill-rule="nonzero"/></g><g clip-path="url(#id2)"><g clip-path="url(#id3)"><path stroke-linecap="butt" transform="matrix(0.746861, 0, 0, 0.746861, 75.574255, 75.63427)" fill="none" stroke-linejoin="miter" d="M 49.179737 -0.00195191 C 22.019189 -0.00195191 -0.0000489506 22.017286 -0.0000489506 49.177834 C -0.0000489506 76.338381 22.019189 98.357619 49.179737 98.357619 C 76.340284 98.357619 98.359522 76.338381 98.359522 49.177834 C 98.359522 22.017286 76.340284 -0.00195191 49.179737 -0.00195191 " stroke="#d9d9d9" stroke-width="14" stroke-opacity="1" stroke-miterlimit="4"/></g></g><g clip-path="url(#id4)"><path fill="#ffffff" d="M 128.8125 92.96875 L 99.0625 92.96875 C 98.660156 92.96875 98.261719 93.007812 97.863281 93.089844 C 97.46875 93.167969 97.082031 93.285156 96.710938 93.4375 C 96.335938 93.59375 95.980469 93.78125 95.644531 94.007812 C 95.308594 94.230469 95 94.488281 94.710938 94.773438 C 94.425781 95.058594 94.171875 95.367188 93.945312 95.707031 C 93.722656 96.042969 93.53125 96.394531 93.378906 96.769531 C 93.222656 97.140625 93.105469 97.527344 93.027344 97.921875 C 92.949219 98.320312 92.910156 98.71875 92.910156 99.125 L 92.910156 107.332031 C 92.910156 107.738281 92.988281 108.132812 93.144531 108.507812 C 93.300781 108.886719 93.523438 109.21875 93.8125 109.507812 C 94.101562 109.796875 94.433594 110.015625 94.808594 110.171875 C 95.1875 110.328125 95.578125 110.40625 95.988281 110.40625 L 103.167969 110.40625 L 103.167969 128.871094 C 103.167969 129.28125 103.246094 129.671875 103.402344 130.050781 C 103.558594 130.425781 103.78125 130.757812 104.070312 131.046875 C 104.355469 131.335938 104.691406 131.558594 105.066406 131.714844 C 105.445312 131.871094 105.835938 131.949219 106.246094 131.949219 L 128.8125 131.949219 C 129.21875 131.949219 129.613281 131.871094 129.988281 131.714844 C 130.367188 131.558594 130.699219 131.335938 130.988281 131.046875 C 131.277344 130.757812 131.5 130.425781 131.65625 130.050781 C 131.8125 129.671875 131.890625 129.28125 131.890625 128.871094 L 131.890625 96.046875 C 131.890625 95.640625 131.8125 95.246094 131.65625 94.871094 C 131.5 94.492188 131.277344 94.160156 130.988281 93.871094 C 130.699219 93.582031 130.367188 93.359375 129.988281 93.203125 C 129.613281 93.046875 129.21875 92.96875 128.8125 92.96875 Z M 95.988281 108.355469 C 95.851562 108.355469 95.71875 108.332031 95.59375 108.277344 C 95.46875 108.226562 95.359375 108.152344 95.261719 108.054688 C 95.164062 107.960938 95.089844 107.847656 95.039062 107.722656 C 94.988281 107.597656 94.960938 107.464844 94.960938 107.332031 L 94.960938 99.125 C 94.960938 98.855469 94.988281 98.589844 95.039062 98.324219 C 95.09375 98.058594 95.171875 97.804688 95.273438 97.554688 C 95.375 97.304688 95.503906 97.070312 95.652344 96.84375 C 95.800781 96.621094 95.972656 96.414062 96.164062 96.222656 C 96.355469 96.03125 96.5625 95.863281 96.785156 95.710938 C 97.007812 95.5625 97.246094 95.4375 97.496094 95.332031 C 97.742188 95.230469 98 95.152344 98.265625 95.101562 C 98.527344 95.046875 98.796875 95.019531 99.0625 95.019531 C 99.332031 95.019531 99.601562 95.046875 99.863281 95.101562 C 100.128906 95.152344 100.386719 95.230469 100.632812 95.332031 C 100.882812 95.4375 101.121094 95.5625 101.34375 95.710938 C 101.566406 95.863281 101.773438 96.03125 101.964844 96.222656 C 102.15625 96.414062 102.328125 96.621094 102.476562 96.84375 C 102.625 97.070312 102.753906 97.304688 102.855469 97.554688 C 102.957031 97.804688 103.035156 98.058594 103.089844 98.324219 C 103.140625 98.589844 103.167969 98.855469 103.167969 99.125 L 103.167969 108.355469 Z M 129.835938 128.871094 C 129.835938 129.007812 129.8125 129.136719 129.757812 129.265625 C 129.707031 129.390625 129.632812 129.5 129.535156 129.597656 C 129.441406 129.691406 129.328125 129.765625 129.203125 129.820312 C 129.078125 129.871094 128.949219 129.898438 128.8125 129.898438 L 106.246094 129.898438 C 106.109375 129.898438 105.976562 129.871094 105.851562 129.820312 C 105.726562 129.765625 105.617188 129.691406 105.519531 129.597656 C 105.421875 129.5 105.347656 129.390625 105.296875 129.265625 C 105.246094 129.136719 105.21875 129.007812 105.21875 128.871094 L 105.21875 99.125 C 105.214844 97.554688 104.6875 96.1875 103.640625 95.019531 L 128.8125 95.019531 C 128.949219 95.019531 129.078125 95.046875 129.203125 95.097656 C 129.328125 95.152344 129.441406 95.226562 129.535156 95.320312 C 129.632812 95.417969 129.707031 95.527344 129.757812 95.65625 C 129.8125 95.78125 129.835938 95.910156 129.835938 96.046875 Z M 129.835938 128.871094 " fill-opacity="1" fill-rule="nonzero"/></g><path fill="#ffffff" d="M 113.425781 99.125 C 107.269531 99.226562 108.398438 98.097656 108.296875 104.253906 C 108.296875 104.390625 108.324219 104.519531 108.375 104.644531 C 108.425781 104.773438 108.5 104.882812 108.597656 104.980469 C 108.691406 105.074219 108.804688 105.148438 108.929688 105.199219 C 109.054688 105.253906 109.1875 105.277344 109.320312 105.277344 L 113.425781 105.277344 C 113.5625 105.277344 113.691406 105.253906 113.816406 105.199219 C 113.945312 105.148438 114.054688 105.074219 114.152344 104.980469 C 114.246094 104.882812 114.320312 104.773438 114.371094 104.644531 C 114.425781 104.519531 114.449219 104.390625 114.449219 104.253906 L 114.449219 100.148438 C 114.449219 100.015625 114.425781 99.882812 114.371094 99.757812 C 114.320312 99.632812 114.246094 99.519531 114.152344 99.425781 C 114.054688 99.328125 113.945312 99.253906 113.816406 99.203125 C 113.691406 99.152344 113.5625 99.125 113.425781 99.125 Z M 112.398438 103.226562 L 110.347656 103.226562 L 110.347656 101.175781 L 112.398438 101.175781 Z M 112.398438 103.226562 " fill-opacity="1" fill-rule="nonzero"/><path fill="#ffffff" d="M 124.605469 98.375 L 119.980469 102.539062 L 119.25 100.828125 C 119.132812 100.578125 118.945312 100.402344 118.691406 100.304688 C 118.433594 100.207031 118.175781 100.210938 117.921875 100.320312 C 117.667969 100.425781 117.488281 100.609375 117.378906 100.859375 C 117.273438 101.113281 117.265625 101.371094 117.363281 101.628906 L 118.644531 104.703125 C 118.710938 104.859375 118.804688 104.988281 118.933594 105.09375 C 119.058594 105.203125 119.203125 105.273438 119.367188 105.308594 C 119.527344 105.347656 119.691406 105.34375 119.851562 105.300781 C 120.011719 105.261719 120.152344 105.183594 120.277344 105.074219 L 125.980469 99.945312 C 126.085938 99.855469 126.167969 99.746094 126.230469 99.621094 C 126.289062 99.5 126.324219 99.367188 126.335938 99.230469 C 126.34375 99.089844 126.324219 98.957031 126.28125 98.824219 C 126.238281 98.695312 126.167969 98.578125 126.078125 98.472656 C 125.988281 98.367188 125.878906 98.285156 125.753906 98.226562 C 125.632812 98.164062 125.5 98.128906 125.363281 98.121094 C 125.222656 98.109375 125.089844 98.128906 124.957031 98.171875 C 124.828125 98.214844 124.710938 98.285156 124.605469 98.375 Z M 124.605469 98.375 " fill-opacity="1" fill-rule="nonzero"/><path fill="#ffffff" d="M 113.425781 109.382812 C 107.269531 109.484375 108.398438 108.355469 108.296875 114.511719 C 108.296875 114.648438 108.324219 114.777344 108.375 114.902344 C 108.425781 115.027344 108.5 115.140625 108.597656 115.234375 C 108.691406 115.332031 108.804688 115.40625 108.929688 115.457031 C 109.054688 115.511719 109.1875 115.535156 109.320312 115.535156 L 113.425781 115.535156 C 113.5625 115.535156 113.691406 115.511719 113.816406 115.457031 C 113.945312 115.40625 114.054688 115.332031 114.152344 115.234375 C 114.246094 115.140625 114.320312 115.027344 114.371094 114.902344 C 114.425781 114.777344 114.449219 114.648438 114.449219 114.511719 L 114.449219 110.40625 C 114.449219 110.273438 114.425781 110.140625 114.371094 110.015625 C 114.320312 109.890625 114.246094 109.777344 114.152344 109.683594 C 114.054688 109.585938 113.945312 109.511719 113.816406 109.460938 C 113.691406 109.40625 113.5625 109.382812 113.425781 109.382812 Z M 112.398438 113.484375 L 110.347656 113.484375 L 110.347656 111.433594 L 112.398438 111.433594 Z M 112.398438 113.484375 " fill-opacity="1" fill-rule="nonzero"/><path fill="#ffffff" d="M 124.605469 108.632812 L 119.980469 112.796875 L 119.25 111.085938 C 119.132812 110.835938 118.945312 110.660156 118.691406 110.5625 C 118.433594 110.464844 118.175781 110.46875 117.921875 110.578125 C 117.667969 110.683594 117.488281 110.863281 117.378906 111.117188 C 117.273438 111.371094 117.265625 111.628906 117.363281 111.886719 L 118.644531 114.960938 C 118.710938 115.117188 118.804688 115.246094 118.933594 115.351562 C 119.058594 115.460938 119.203125 115.53125 119.367188 115.566406 C 119.527344 115.605469 119.691406 115.601562 119.851562 115.558594 C 120.011719 115.519531 120.152344 115.441406 120.277344 115.332031 L 125.980469 110.203125 C 126.085938 110.113281 126.167969 110.003906 126.230469 109.878906 C 126.289062 109.757812 126.324219 109.625 126.335938 109.488281 C 126.34375 109.347656 126.324219 109.214844 126.28125 109.082031 C 126.238281 108.953125 126.167969 108.835938 126.078125 108.730469 C 125.988281 108.625 125.878906 108.542969 125.753906 108.484375 C 125.632812 108.421875 125.5 108.386719 125.363281 108.378906 C 125.222656 108.367188 125.089844 108.386719 124.957031 108.429688 C 124.828125 108.472656 124.710938 108.542969 124.605469 108.632812 Z M 124.605469 108.632812 " fill-opacity="1" fill-rule="nonzero"/><path fill="#ffffff" d="M 113.425781 119.640625 C 107.269531 119.742188 108.398438 118.613281 108.296875 124.769531 C 108.296875 124.90625 108.324219 125.035156 108.375 125.160156 C 108.425781 125.285156 108.5 125.398438 108.597656 125.492188 C 108.691406 125.589844 108.804688 125.664062 108.929688 125.714844 C 109.054688 125.769531 109.1875 125.792969 109.320312 125.792969 L 113.425781 125.792969 C 113.5625 125.792969 113.691406 125.769531 113.816406 125.714844 C 113.945312 125.664062 114.054688 125.589844 114.152344 125.492188 C 114.246094 125.398438 114.320312 125.285156 114.371094 125.160156 C 114.425781 125.035156 114.449219 124.90625 114.449219 124.769531 L 114.449219 120.664062 C 114.449219 120.53125 114.425781 120.398438 114.371094 120.273438 C 114.320312 120.148438 114.246094 120.035156 114.152344 119.941406 C 114.054688 119.84375 113.945312 119.769531 113.816406 119.71875 C 113.691406 119.664062 113.5625 119.640625 113.425781 119.640625 Z M 112.398438 123.742188 L 110.347656 123.742188 L 110.347656 121.691406 L 112.398438 121.691406 Z M 112.398438 123.742188 " fill-opacity="1" fill-rule="nonzero"/><path fill="#ffffff" d="M 124.605469 118.890625 L 119.980469 123.054688 L 119.25 121.34375 C 119.132812 121.09375 118.945312 120.917969 118.691406 120.820312 C 118.433594 120.722656 118.175781 120.726562 117.921875 120.835938 C 117.667969 120.941406 117.488281 121.121094 117.378906 121.375 C 117.273438 121.628906 117.265625 121.886719 117.363281 122.144531 L 118.644531 125.21875 C 118.710938 125.375 118.804688 125.503906 118.933594 125.609375 C 119.058594 125.71875 119.203125 125.789062 119.367188 125.824219 C 119.527344 125.863281 119.691406 125.859375 119.851562 125.816406 C 120.011719 125.777344 120.152344 125.699219 120.277344 125.589844 L 125.980469 120.460938 C 126.085938 120.371094 126.167969 120.261719 126.230469 120.136719 C 126.289062 120.011719 126.324219 119.882812 126.335938 119.746094 C 126.34375 119.605469 126.324219 119.472656 126.28125 119.339844 C 126.238281 119.210938 126.167969 119.09375 126.078125 118.988281 C 125.988281 118.882812 125.878906 118.800781 125.753906 118.742188 C 125.632812 118.679688 125.5 118.644531 125.363281 118.636719 C 125.222656 118.625 125.089844 118.644531 124.957031 118.6875 C 124.828125 118.730469 124.710938 118.800781 124.605469 118.890625 Z M 124.605469 118.890625 " fill-opacity="1" fill-rule="nonzero"/></svg>