<svg xmlns="http://www.w3.org/2000/svg" xmlns:xlink="http://www.w3.org/1999/xlink" width="300" zoomAndPan="magnify" viewBox="0 0 224.87999 225" height="300" preserveAspectRatio="xMidYMid meet" version="1.0"><defs><clipPath id="id1"><path d="M 75.574219 75.632812 L 149.035156 75.632812 L 149.035156 149.09375 L 75.574219 149.09375 Z M 75.574219 75.632812 " clip-rule="nonzero"/></clipPath><clipPath id="id2"><path d="M 75.574219 75.632812 L 149.035156 75.632812 L 149.035156 149.09375 L 75.574219 149.09375 Z M 75.574219 75.632812 " clip-rule="nonzero"/></clipPath><clipPath id="id3"><path d="M 112.304688 75.632812 C 92.019531 75.632812 75.574219 92.078125 75.574219 112.363281 C 75.574219 132.648438 92.019531 149.09375 112.304688 149.09375 C 132.589844 149.09375 149.035156 132.648438 149.035156 112.363281 C 149.035156 92.078125 132.589844 75.632812 112.304688 75.632812 " clip-rule="nonzero"/></clipPath><clipPath id="id4"><path d="M 92.824219 90.179688 L 131.804688 90.179688 L 131.804688 135.15625 L 92.824219 135.15625 Z M 92.824219 90.179688 " clip-rule="nonzero"/></clipPath></defs><g clip-path="url(#id1)"><path fill="#54688c" d="M 112.304688 75.632812 C 92.019531 75.632812 75.574219 92.078125 75.574219 112.363281 C 75.574219 132.648438 92.019531 149.09375 112.304688 149.09375 C 132.589844 149.09375 149.035156 132.648438 149.035156 112.363281 C 149.035156 92.078125 132.589844 75.632812 112.304688 75.632812 " fill-opacity="1" fill-rule="nonzero"/></g><g clip-path="url(#id2)"><g clip-path="url(#id3)"><path stroke-linecap="butt" transform="matrix(0.746861, 0, 0, 0.746861, 75.574255, 75.634299)" fill="none" stroke-linejoin="miter" d="M 49.179737 -0.00199045 C 22.019189 -0.00199045 -0.0000489506 22.017248 -0.0000489506 49.177795 C -0.0000489506 76.338342 22.019189 98.357581 49.179737 98.357581 C 76.340284 98.357581 98.359522 76.338342 98.359522 49.177795 C 98.359522 22.017248 76.340284 -0.00199045 49.179737 -0.00199045 " stroke="#d9d9d9" stroke-width="14" stroke-opacity="1" stroke-miterlimit="4"/></g></g><g clip-path="url(#id4)"><path fill="#ffffff" d="M 112.316406 90.183594 C 107.128906 93.046875 100.109375 95.453125 94.125 95.453125 L 92.828125 95.453125 L 92.828125 96.769531 C 92.828125 107.878906 95.085938 119.660156 102.242188 128 C 104.851562 131.039062 108.546875 134.003906 112.316406 135.15625 C 116.09375 134.003906 119.773438 131.050781 122.390625 128 C 129.554688 119.652344 131.804688 107.863281 131.804688 96.769531 L 131.804688 95.453125 L 130.507812 95.453125 C 124.582031 95.453125 117.582031 93.089844 112.316406 90.183594 Z M 120.550781 126.128906 C 117.019531 130.300781 113.445312 131.945312 112.316406 132.386719 C 111.183594 131.941406 107.609375 130.300781 104.082031 126.128906 C 100.242188 121.589844 95.683594 113.066406 95.4375 98.054688 C 103.011719 97.6875 110.183594 94.277344 112.316406 93.175781 C 114.453125 94.277344 121.621094 97.6875 129.199219 98.054688 C 128.949219 113.066406 124.390625 121.589844 120.550781 126.128906 Z M 120.550781 126.128906 " fill-opacity="1" fill-rule="nonzero"/></g><path fill="#ffffff" d="M 100.625 110.035156 C 100.625 116.570312 105.867188 121.890625 112.316406 121.890625 C 118.765625 121.890625 124.011719 116.570312 124.011719 110.035156 C 124.011719 103.445312 118.765625 98.089844 112.316406 98.089844 C 105.867188 98.089844 100.625 103.449219 100.625 110.035156 Z M 121.410156 110.035156 C 121.410156 115.117188 117.332031 119.257812 112.316406 119.257812 C 107.300781 119.257812 103.222656 115.117188 103.222656 110.035156 C 103.222656 104.898438 107.300781 100.722656 112.316406 100.722656 C 117.332031 100.722656 121.410156 104.898438 121.410156 110.035156 Z M 121.410156 110.035156 " fill-opacity="1" fill-rule="nonzero"/><path fill="#ffffff" d="M 108.039062 109.101562 L 106.199219 110.964844 L 111.023438 115.855469 L 118.4375 108.238281 L 116.589844 106.386719 L 111.011719 112.117188 Z M 108.039062 109.101562 " fill-opacity="1" fill-rule="nonzero"/></svg>