<svg xmlns="http://www.w3.org/2000/svg" xmlns:xlink="http://www.w3.org/1999/xlink" width="300" zoomAndPan="magnify" viewBox="0 0 224.87999 225" height="300" preserveAspectRatio="xMidYMid meet" version="1.0"><defs><clipPath id="id1"><path d="M 75.574219 75.632812 L 149.035156 75.632812 L 149.035156 149.09375 L 75.574219 149.09375 Z M 75.574219 75.632812 " clip-rule="nonzero"/></clipPath><clipPath id="id2"><path d="M 75.574219 75.632812 L 149.035156 75.632812 L 149.035156 149.09375 L 75.574219 149.09375 Z M 75.574219 75.632812 " clip-rule="nonzero"/></clipPath><clipPath id="id3"><path d="M 112.304688 75.632812 C 92.019531 75.632812 75.574219 92.078125 75.574219 112.363281 C 75.574219 132.648438 92.019531 149.09375 112.304688 149.09375 C 132.589844 149.09375 149.035156 132.648438 149.035156 112.363281 C 149.035156 92.078125 132.589844 75.632812 112.304688 75.632812 " clip-rule="nonzero"/></clipPath><clipPath id="id4"><path d="M 92.964844 95 L 130 95 L 130 131.949219 L 92.964844 131.949219 Z M 92.964844 95 " clip-rule="nonzero"/></clipPath><clipPath id="id5"><path d="M 100 92.96875 L 130.445312 92.96875 L 130.445312 125 L 100 125 Z M 100 92.96875 " clip-rule="nonzero"/></clipPath></defs><g clip-path="url(#id1)"><path fill="#748fc2" d="M 112.304688 75.632812 C 92.019531 75.632812 75.574219 92.078125 75.574219 112.363281 C 75.574219 132.648438 92.019531 149.09375 112.304688 149.09375 C 132.589844 149.09375 149.035156 132.648438 149.035156 112.363281 C 149.035156 92.078125 132.589844 75.632812 112.304688 75.632812 " fill-opacity="1" fill-rule="nonzero"/></g><g clip-path="url(#id2)"><g clip-path="url(#id3)"><path stroke-linecap="butt" transform="matrix(0.746861, 0, 0, 0.746861, 75.574255, 75.634285)" fill="none" stroke-linejoin="miter" d="M 49.179737 -0.00197118 C 22.019189 -0.00197118 -0.0000489506 22.017267 -0.0000489506 49.177814 C -0.0000489506 76.338362 22.019189 98.3576 49.179737 98.3576 C 76.340284 98.3576 98.359522 76.338362 98.359522 49.177814 C 98.359522 22.017267 76.340284 -0.00197118 49.179737 -0.00197118 " stroke="#d9d9d9" stroke-width="14" stroke-opacity="1" stroke-miterlimit="4"/></g></g><g clip-path="url(#id4)"><path fill="#ffffff" d="M 111.269531 95.140625 C 101.1875 95.140625 92.980469 103.398438 92.980469 113.539062 C 92.980469 123.679688 101.1875 131.9375 111.269531 131.9375 C 121.351562 131.9375 129.558594 123.679688 129.558594 113.539062 C 129.558594 109.152344 128.085938 105.234375 125.582031 102.019531 L 123.859375 104.074219 C 126.042969 106.777344 126.898438 109.78125 126.898438 113.539062 C 126.898438 122.230469 119.910156 129.253906 111.269531 129.253906 C 102.628906 129.253906 95.644531 122.230469 95.644531 113.539062 C 95.644531 104.847656 102.628906 97.820312 111.269531 97.820312 C 114.007812 97.820312 116.054688 98.214844 118.289062 99.457031 L 119.925781 97.296875 C 117.308594 95.839844 114.464844 95.140625 111.269531 95.140625 Z M 111.269531 95.140625 " fill-opacity="1" fill-rule="evenodd"/></g><g clip-path="url(#id5)"><path fill="#ffffff" d="M 104.5 111.117188 C 105.238281 111.117188 105.796875 111.726562 106.175781 112.945312 C 106.929688 115.226562 107.46875 116.371094 107.792969 116.371094 C 108.039062 116.371094 108.292969 116.179688 108.558594 115.796875 C 113.871094 107.238281 118.789062 100.3125 123.308594 95.023438 C 124.480469 93.65625 126.34375 92.96875 128.894531 92.96875 C 129.5 92.96875 129.90625 93.027344 130.117188 93.140625 C 130.324219 93.253906 130.429688 93.398438 130.429688 93.570312 C 130.429688 93.835938 130.117188 94.359375 129.492188 95.136719 C 122.191406 103.964844 115.421875 113.289062 109.183594 123.105469 C 108.746094 123.789062 107.859375 124.132812 106.515625 124.132812 C 105.152344 124.132812 104.351562 124.074219 104.105469 123.960938 C 103.460938 123.675781 102.703125 122.21875 101.835938 119.59375 C 100.851562 116.683594 100.359375 114.855469 100.359375 114.113281 C 100.359375 113.316406 101.023438 112.546875 102.34375 111.804688 C 103.160156 111.347656 103.878906 111.117188 104.5 111.117188 " fill-opacity="1" fill-rule="nonzero"/></g></svg>