<svg xmlns="http://www.w3.org/2000/svg" xmlns:xlink="http://www.w3.org/1999/xlink" width="300" zoomAndPan="magnify" viewBox="0 0 224.87999 225" height="300" preserveAspectRatio="xMidYMid meet" version="1.0"><defs><clipPath id="id1"><path d="M 75.574219 75.632812 L 149.035156 75.632812 L 149.035156 149.09375 L 75.574219 149.09375 Z M 75.574219 75.632812 " clip-rule="nonzero"/></clipPath><clipPath id="id2"><path d="M 75.574219 75.632812 L 149.035156 75.632812 L 149.035156 149.09375 L 75.574219 149.09375 Z M 75.574219 75.632812 " clip-rule="nonzero"/></clipPath><clipPath id="id3"><path d="M 112.304688 75.632812 C 92.019531 75.632812 75.574219 92.078125 75.574219 112.363281 C 75.574219 132.648438 92.019531 149.09375 112.304688 149.09375 C 132.589844 149.09375 149.035156 132.648438 149.035156 112.363281 C 149.035156 92.078125 132.589844 75.632812 112.304688 75.632812 " clip-rule="nonzero"/></clipPath><clipPath id="id4"><path d="M 107 136 L 118 136 L 118 137.648438 L 107 137.648438 Z M 107 136 " clip-rule="nonzero"/></clipPath><clipPath id="id5"><path d="M 112 87.425781 L 114 87.425781 L 114 92 L 112 92 Z M 112 87.425781 " clip-rule="nonzero"/></clipPath><clipPath id="id6"><path d="M 88.027344 111 L 92 111 L 92 114 L 88.027344 114 Z M 88.027344 111 " clip-rule="nonzero"/></clipPath><clipPath id="id7"><path d="M 134 111 L 138.25 111 L 138.25 114 L 134 114 Z M 134 111 " clip-rule="nonzero"/></clipPath></defs><g clip-path="url(#id1)"><path fill="#7fcefc" d="M 112.304688 75.632812 C 92.019531 75.632812 75.574219 92.078125 75.574219 112.363281 C 75.574219 132.648438 92.019531 149.09375 112.304688 149.09375 C 132.589844 149.09375 149.035156 132.648438 149.035156 112.363281 C 149.035156 92.078125 132.589844 75.632812 112.304688 75.632812 " fill-opacity="1" fill-rule="nonzero"/></g><g clip-path="url(#id2)"><g clip-path="url(#id3)"><path stroke-linecap="butt" transform="matrix(0.746861, 0, 0, 0.746861, 75.574255, 75.63433)" fill="none" stroke-linejoin="miter" d="M 49.179737 -0.0020322 C 22.019189 -0.0020322 -0.0000489506 22.017206 -0.0000489506 49.177753 C -0.0000489506 76.338301 22.019189 98.357539 49.179737 98.357539 C 76.340284 98.357539 98.359522 76.338301 98.359522 49.177753 C 98.359522 22.017206 76.340284 -0.0020322 49.179737 -0.0020322 " stroke="#d9d9d9" stroke-width="14" stroke-opacity="1" stroke-miterlimit="4"/></g></g><path fill="#ffffff" d="M 118.628906 133.726562 C 118.628906 133.292969 118.277344 132.941406 117.84375 132.941406 L 106.859375 132.941406 C 106.425781 132.941406 106.074219 133.292969 106.074219 133.726562 C 106.074219 134.15625 106.425781 134.511719 106.859375 134.511719 L 117.84375 134.511719 C 118.277344 134.511719 118.628906 134.15625 118.628906 133.726562 Z M 118.628906 133.726562 " fill-opacity="1" fill-rule="nonzero"/><g clip-path="url(#id4)"><path fill="#ffffff" d="M 108.429688 136.082031 C 107.996094 136.082031 107.644531 136.433594 107.644531 136.867188 C 107.644531 137.296875 107.996094 137.648438 108.429688 137.648438 L 116.277344 137.648438 C 116.707031 137.648438 117.0625 137.296875 117.0625 136.867188 C 117.0625 136.433594 116.707031 136.082031 116.277344 136.082031 Z M 108.429688 136.082031 " fill-opacity="1" fill-rule="nonzero"/></g><path fill="#ffffff" d="M 111.804688 119.601562 L 112.902344 119.601562 C 113.921875 119.601562 114.785156 118.816406 114.785156 117.835938 L 114.785156 117.050781 C 115.335938 116.894531 115.84375 116.660156 116.355469 116.382812 L 116.902344 116.933594 C 117.570312 117.601562 118.746094 117.5625 119.453125 116.855469 L 120.238281 116.070312 C 120.984375 115.324219 121.023438 114.1875 120.316406 113.519531 L 119.769531 112.96875 C 120.042969 112.460938 120.238281 111.949219 120.433594 111.402344 L 121.21875 111.402344 C 122.199219 111.402344 122.984375 110.539062 122.984375 109.515625 L 122.984375 108.417969 C 122.984375 107.398438 122.199219 106.535156 121.21875 106.535156 L 120.433594 106.535156 C 120.277344 105.984375 120.042969 105.476562 119.769531 104.964844 L 120.316406 104.417969 C 121.023438 103.710938 120.984375 102.574219 120.238281 101.867188 L 119.453125 101.082031 C 118.707031 100.335938 117.570312 100.296875 116.902344 101.003906 L 116.355469 101.550781 C 115.84375 101.277344 115.335938 101.082031 114.785156 100.886719 L 114.785156 100.101562 C 114.785156 99.121094 113.960938 98.335938 112.902344 98.335938 L 111.804688 98.335938 C 110.78125 98.335938 109.917969 99.121094 109.917969 100.101562 L 109.917969 100.886719 C 109.371094 101.042969 108.859375 101.277344 108.351562 101.550781 L 107.800781 101.003906 C 107.132812 100.335938 105.957031 100.375 105.25 101.082031 L 104.464844 101.867188 C 104.113281 102.21875 103.878906 102.730469 103.878906 103.238281 C 103.878906 103.710938 104.035156 104.140625 104.386719 104.457031 L 104.9375 105.003906 C 104.660156 105.515625 104.464844 106.023438 104.269531 106.574219 L 103.484375 106.574219 C 102.542969 106.574219 101.757812 107.4375 101.757812 108.457031 L 101.757812 109.554688 C 101.757812 110.578125 102.542969 111.441406 103.523438 111.441406 L 104.308594 111.441406 C 104.464844 111.988281 104.699219 112.5 104.976562 113.007812 L 104.425781 113.558594 C 103.757812 114.265625 103.796875 115.402344 104.503906 116.109375 L 105.289062 116.894531 C 106.035156 117.640625 107.171875 117.679688 107.839844 116.972656 L 108.390625 116.421875 C 108.898438 116.699219 109.410156 116.894531 109.957031 117.089844 L 109.957031 117.875 C 109.917969 118.816406 110.78125 119.601562 111.804688 119.601562 Z M 108.234375 109.007812 C 108.234375 106.730469 110.078125 104.886719 112.351562 104.886719 C 114.628906 104.886719 116.472656 106.730469 116.472656 109.007812 C 116.472656 111.28125 114.628906 113.128906 112.351562 113.128906 C 110.078125 113.128906 108.234375 111.28125 108.234375 109.007812 Z M 108.234375 109.007812 " fill-opacity="1" fill-rule="nonzero"/><g clip-path="url(#id5)"><path fill="#ffffff" d="M 112.351562 88.210938 L 112.351562 90.566406 C 112.351562 90.996094 112.707031 91.351562 113.136719 91.351562 C 113.570312 91.351562 113.921875 90.996094 113.921875 90.566406 L 113.921875 88.210938 C 113.921875 87.78125 113.570312 87.425781 113.136719 87.425781 C 112.707031 87.425781 112.351562 87.78125 112.351562 88.210938 Z M 112.351562 88.210938 " fill-opacity="1" fill-rule="nonzero"/></g><path fill="#ffffff" d="M 103.523438 89.347656 C 103.132812 89.507812 102.933594 89.976562 103.09375 90.371094 L 103.996094 92.527344 C 104.113281 92.839844 104.425781 93 104.699219 93 C 104.820312 93 104.898438 93 105.015625 92.921875 C 105.40625 92.761719 105.605469 92.292969 105.445312 91.898438 L 104.542969 89.78125 C 104.386719 89.347656 103.917969 89.152344 103.523438 89.347656 Z M 103.523438 89.347656 " fill-opacity="1" fill-rule="nonzero"/><path fill="#ffffff" d="M 97.597656 97.785156 C 97.796875 97.785156 97.992188 97.707031 98.148438 97.550781 C 98.460938 97.234375 98.460938 96.765625 98.148438 96.453125 L 96.5 94.804688 C 96.1875 94.488281 95.714844 94.488281 95.402344 94.804688 C 95.089844 95.117188 95.089844 95.589844 95.402344 95.902344 L 97.050781 97.550781 C 97.207031 97.707031 97.402344 97.785156 97.597656 97.785156 Z M 97.597656 97.785156 " fill-opacity="1" fill-rule="nonzero"/><path fill="#ffffff" d="M 93.125 103.394531 L 90.96875 102.492188 C 90.574219 102.335938 90.105469 102.53125 89.949219 102.925781 C 89.792969 103.316406 89.988281 103.789062 90.378906 103.945312 L 92.539062 104.847656 C 92.65625 104.886719 92.734375 104.925781 92.851562 104.925781 C 93.164062 104.925781 93.441406 104.730469 93.558594 104.457031 C 93.714844 104.023438 93.519531 103.554688 93.125 103.394531 Z M 93.125 103.394531 " fill-opacity="1" fill-rule="nonzero"/><g clip-path="url(#id6)"><path fill="#ffffff" d="M 88.808594 113.324219 L 91.164062 113.324219 C 91.597656 113.324219 91.949219 112.96875 91.949219 112.539062 C 91.949219 112.105469 91.597656 111.753906 91.164062 111.753906 L 88.808594 111.753906 C 88.378906 111.753906 88.027344 112.105469 88.027344 112.539062 C 88.027344 112.96875 88.378906 113.324219 88.808594 113.324219 Z M 88.808594 113.324219 " fill-opacity="1" fill-rule="nonzero"/></g><path fill="#ffffff" d="M 92.539062 120.230469 L 90.378906 121.132812 C 89.988281 121.289062 89.792969 121.757812 89.949219 122.152344 C 90.066406 122.464844 90.378906 122.621094 90.65625 122.621094 C 90.773438 122.621094 90.851562 122.621094 90.96875 122.542969 L 93.125 121.640625 C 93.519531 121.484375 93.714844 121.015625 93.558594 120.621094 C 93.402344 120.230469 92.929688 120.070312 92.539062 120.230469 Z M 92.539062 120.230469 " fill-opacity="1" fill-rule="nonzero"/><path fill="#ffffff" d="M 95.363281 130.3125 C 95.519531 130.46875 95.714844 130.546875 95.910156 130.546875 C 96.109375 130.546875 96.304688 130.46875 96.460938 130.3125 L 98.109375 128.664062 C 98.421875 128.351562 98.421875 127.878906 98.109375 127.566406 C 97.796875 127.253906 97.324219 127.253906 97.011719 127.566406 L 95.363281 129.214844 C 95.089844 129.488281 95.089844 130 95.363281 130.3125 Z M 95.363281 130.3125 " fill-opacity="1" fill-rule="nonzero"/><path fill="#ffffff" d="M 129.222656 127.527344 C 128.910156 127.214844 128.441406 127.214844 128.125 127.527344 C 127.8125 127.839844 127.8125 128.3125 128.125 128.625 L 129.773438 130.273438 C 129.929688 130.429688 130.125 130.507812 130.324219 130.507812 C 130.519531 130.507812 130.714844 130.429688 130.871094 130.273438 C 131.1875 129.960938 131.1875 129.488281 130.871094 129.175781 Z M 129.222656 127.527344 " fill-opacity="1" fill-rule="nonzero"/><path fill="#ffffff" d="M 132.714844 120.660156 C 132.558594 121.054688 132.753906 121.523438 133.148438 121.679688 L 135.304688 122.582031 C 135.421875 122.621094 135.503906 122.660156 135.621094 122.660156 C 135.933594 122.660156 136.207031 122.464844 136.324219 122.191406 C 136.484375 121.796875 136.285156 121.328125 135.894531 121.171875 L 133.738281 120.269531 C 133.34375 120.070312 132.875 120.230469 132.714844 120.660156 Z M 132.714844 120.660156 " fill-opacity="1" fill-rule="nonzero"/><g clip-path="url(#id7)"><path fill="#ffffff" d="M 137.464844 111.753906 L 135.109375 111.753906 C 134.679688 111.753906 134.324219 112.105469 134.324219 112.539062 C 134.324219 112.96875 134.679688 113.324219 135.109375 113.324219 L 137.464844 113.324219 C 137.894531 113.324219 138.25 112.96875 138.25 112.539062 C 138.25 112.105469 137.894531 111.753906 137.464844 111.753906 Z M 137.464844 111.753906 " fill-opacity="1" fill-rule="nonzero"/></g><path fill="#ffffff" d="M 136.324219 102.925781 C 136.167969 102.53125 135.699219 102.335938 135.304688 102.492188 L 133.148438 103.394531 C 132.753906 103.554688 132.558594 104.023438 132.714844 104.417969 C 132.835938 104.730469 133.148438 104.886719 133.421875 104.886719 C 133.539062 104.886719 133.617188 104.886719 133.738281 104.808594 L 135.894531 103.90625 C 136.324219 103.789062 136.523438 103.316406 136.324219 102.925781 Z M 136.324219 102.925781 " fill-opacity="1" fill-rule="nonzero"/><path fill="#ffffff" d="M 130.910156 94.765625 C 130.597656 94.449219 130.125 94.449219 129.8125 94.765625 L 128.164062 96.414062 C 127.851562 96.726562 127.851562 97.195312 128.164062 97.511719 C 128.320312 97.667969 128.519531 97.746094 128.714844 97.746094 C 128.910156 97.746094 129.105469 97.667969 129.261719 97.511719 L 130.910156 95.863281 C 131.1875 95.589844 131.1875 95.078125 130.910156 94.765625 Z M 130.910156 94.765625 " fill-opacity="1" fill-rule="nonzero"/><path fill="#ffffff" d="M 121.730469 89.78125 L 120.828125 91.9375 C 120.671875 92.332031 120.867188 92.800781 121.257812 92.960938 C 121.375 93 121.457031 93.039062 121.574219 93.039062 C 121.886719 93.039062 122.160156 92.839844 122.277344 92.566406 L 123.183594 90.410156 C 123.339844 90.015625 123.140625 89.546875 122.75 89.390625 C 122.359375 89.152344 121.886719 89.347656 121.730469 89.78125 Z M 121.730469 89.78125 " fill-opacity="1" fill-rule="nonzero"/><path fill="#ffffff" d="M 120.316406 124.425781 C 120.828125 122.859375 121.140625 122.78125 121.179688 122.78125 L 124.359375 122.78125 C 125.261719 122.820312 126.085938 122.542969 126.671875 121.957031 C 127.890625 120.777344 127.851562 118.816406 127.851562 118.582031 C 127.851562 118.425781 127.8125 118.304688 127.734375 118.1875 C 127.378906 117.640625 127.457031 117.285156 127.496094 117.167969 L 128.242188 116.265625 C 128.519531 115.953125 128.480469 115.480469 128.164062 115.167969 C 128.046875 115.089844 127.96875 114.972656 127.929688 114.933594 C 128.242188 114.617188 128.441406 114.304688 128.480469 113.949219 C 128.519531 113.597656 128.398438 113.324219 128.28125 113.167969 L 127.8125 112.265625 C 127.773438 112.144531 127.8125 112.066406 127.8125 112.027344 C 127.851562 111.988281 127.96875 111.949219 128.046875 111.949219 C 128.125 111.949219 128.164062 111.949219 128.242188 111.910156 C 129.460938 111.597656 130.125 111.085938 130.363281 110.378906 C 130.519531 109.792969 130.285156 109.28125 130.046875 108.96875 L 126.515625 103.90625 C 126.242188 103.515625 126.125 103.003906 126.007812 102.492188 L 126.007812 102.414062 C 125.96875 102.21875 125.890625 101.984375 125.851562 101.789062 C 123.847656 94.804688 116.355469 92.136719 110 93.078125 C 101.914062 94.332031 95.871094 101.316406 95.871094 109.398438 C 95.871094 113.402344 97.402344 117.523438 100.109375 120.660156 C 103.71875 124.859375 103.957031 126.074219 104.542969 129.332031 L 104.660156 129.921875 C 104.820312 130.824219 105.445312 131.410156 106.191406 131.410156 L 113.136719 131.410156 C 113.570312 131.410156 113.921875 131.058594 113.921875 130.625 L 113.921875 121.957031 C 113.921875 121.523438 113.570312 121.171875 113.136719 121.171875 C 112.707031 121.171875 112.351562 121.523438 112.351562 121.957031 L 112.351562 129.804688 L 106.269531 129.804688 C 106.230469 129.761719 106.230469 129.683594 106.191406 129.605469 L 106.074219 129.019531 C 105.484375 125.683594 105.210938 124.152344 101.289062 119.601562 C 98.855469 116.777344 97.441406 113.046875 97.441406 109.398438 C 97.441406 102.101562 102.933594 95.785156 110.195312 94.6875 C 115.84375 93.824219 122.515625 96.175781 124.28125 102.257812 C 124.320312 102.453125 124.398438 102.652344 124.4375 102.808594 L 124.4375 102.886719 C 124.59375 103.515625 124.75 104.21875 125.183594 104.847656 L 128.753906 109.910156 C 128.753906 109.949219 128.792969 109.949219 128.792969 109.988281 C 128.714844 110.066406 128.480469 110.222656 127.890625 110.378906 C 127.617188 110.417969 126.949219 110.5 126.554688 111.046875 C 126.320312 111.363281 126.085938 111.871094 126.320312 112.695312 C 126.320312 112.773438 126.359375 112.8125 126.398438 112.890625 L 126.871094 113.792969 C 126.832031 113.832031 126.714844 113.949219 126.554688 114.03125 C 126.476562 114.070312 126.398438 114.148438 126.320312 114.265625 C 126.046875 114.695312 126.125 115.207031 126.59375 115.796875 L 126.203125 116.265625 C 126.164062 116.304688 126.125 116.34375 126.125 116.382812 C 126.085938 116.460938 125.574219 117.480469 126.320312 118.816406 C 126.28125 119.328125 126.164062 120.308594 125.613281 120.855469 C 125.339844 121.132812 124.949219 121.25 124.476562 121.210938 C 124.476562 121.210938 124.4375 121.210938 124.4375 121.210938 L 121.21875 121.210938 C 119.730469 121.210938 119.140625 123.054688 118.867188 123.957031 L 118.828125 124.074219 C 118.277344 125.800781 118.082031 127.722656 118.238281 129.84375 L 116.667969 129.84375 C 116.238281 129.84375 115.882812 130.195312 115.882812 130.625 C 115.882812 131.058594 116.238281 131.410156 116.667969 131.410156 L 118.628906 131.410156 C 118.945312 131.410156 119.257812 131.292969 119.453125 131.019531 C 119.691406 130.746094 119.808594 130.390625 119.808594 130.039062 C 119.609375 127.996094 119.769531 126.152344 120.277344 124.546875 Z M 120.316406 124.425781 " fill-opacity="1" fill-rule="nonzero"/></svg>