<svg xmlns="http://www.w3.org/2000/svg" xmlns:xlink="http://www.w3.org/1999/xlink" width="300" zoomAndPan="magnify" viewBox="0 0 224.87999 225" height="300" preserveAspectRatio="xMidYMid meet" version="1.0"><defs><clipPath id="id1"><path d="M 76 70 L 149 70 L 149 202.453125 L 76 202.453125 Z M 76 70 " clip-rule="nonzero"/></clipPath><clipPath id="id2"><path d="M 104 22.546875 L 204.304688 22.546875 L 204.304688 139 L 104 139 Z M 104 22.546875 " clip-rule="nonzero"/></clipPath><clipPath id="id3"><path d="M 20.652344 22.546875 L 149 22.546875 L 149 103 L 20.652344 103 Z M 20.652344 22.546875 " clip-rule="nonzero"/></clipPath></defs><g clip-path="url(#id1)"><path fill="#1a5a96" d="M 76.269531 83.582031 L 76.269531 173.515625 L 126.382812 202.4375 L 148.6875 189.5625 L 148.6875 138.082031 L 131.890625 147.777344 L 131.890625 176.695312 C 131.890625 177.675781 131.644531 178.597656 131.152344 179.449219 C 130.660156 180.300781 129.988281 180.972656 129.136719 181.464844 C 128.285156 181.957031 127.367188 182.203125 126.382812 182.203125 C 125.398438 182.203125 124.476562 181.957031 123.625 181.464844 L 95.820312 165.414062 C 94.96875 164.921875 94.296875 164.25 93.804688 163.394531 C 93.3125 162.542969 93.066406 161.625 93.066406 160.640625 L 93.066406 96.453125 C 93.066406 95.46875 93.3125 94.546875 93.804688 93.695312 C 94.296875 92.84375 94.96875 92.171875 95.820312 91.679688 L 115.371094 80.394531 L 98.574219 70.703125 Z M 76.269531 83.582031 " fill-opacity="1" fill-rule="nonzero"/></g><g clip-path="url(#id2)"><path fill="#fcba19" d="M 123.628906 117.265625 L 104.082031 105.984375 L 104.082031 125.363281 L 126.382812 138.238281 L 204.304688 93.261719 L 204.304688 35.4375 L 182 22.566406 L 137.394531 48.304688 L 154.191406 57.992188 L 179.25 43.535156 C 180.101562 43.042969 181.019531 42.796875 182.003906 42.796875 C 182.988281 42.796875 183.90625 43.042969 184.757812 43.535156 C 185.613281 44.027344 186.285156 44.699219 186.777344 45.550781 C 187.269531 46.402344 187.511719 47.324219 187.511719 48.304688 L 187.511719 80.402344 C 187.511719 81.386719 187.269531 82.304688 186.777344 83.15625 C 186.285156 84.011719 185.609375 84.683594 184.757812 85.175781 L 129.136719 117.265625 C 128.285156 117.757812 127.367188 118.003906 126.382812 118.003906 C 125.398438 118.003906 124.480469 117.757812 123.628906 117.265625 Z M 123.628906 117.265625 " fill-opacity="1" fill-rule="nonzero"/></g><g clip-path="url(#id3)"><path fill="#003366" d="M 131.890625 80.402344 L 131.890625 102.96875 L 148.6875 93.277344 L 148.6875 67.539062 L 70.765625 22.566406 L 20.652344 51.484375 L 20.652344 77.226562 L 65.257812 102.96875 L 65.257812 83.582031 L 40.203125 69.121094 C 39.992188 69 39.792969 68.867188 39.605469 68.722656 C 39.414062 68.574219 39.234375 68.417969 39.0625 68.246094 C 38.894531 68.074219 38.734375 67.894531 38.589844 67.703125 C 38.441406 67.515625 38.308594 67.3125 38.1875 67.105469 C 38.070312 66.898438 37.960938 66.683594 37.871094 66.460938 C 37.777344 66.238281 37.703125 66.011719 37.640625 65.777344 C 37.578125 65.546875 37.53125 65.3125 37.5 65.074219 C 37.46875 64.835938 37.453125 64.59375 37.453125 64.355469 C 37.453125 64.113281 37.46875 63.875 37.5 63.636719 C 37.53125 63.398438 37.578125 63.164062 37.640625 62.929688 C 37.703125 62.699219 37.777344 62.472656 37.871094 62.25 C 37.960938 62.027344 38.070312 61.8125 38.1875 61.605469 C 38.308594 61.394531 38.441406 61.195312 38.589844 61.003906 C 38.734375 60.816406 38.894531 60.632812 39.0625 60.464844 C 39.234375 60.292969 39.414062 60.136719 39.605469 59.988281 C 39.792969 59.84375 39.992188 59.710938 40.203125 59.589844 L 68.015625 43.542969 C 68.867188 43.046875 69.785156 42.800781 70.769531 42.800781 C 71.753906 42.800781 72.671875 43.046875 73.523438 43.542969 L 129.136719 75.636719 C 129.988281 76.128906 130.660156 76.800781 131.152344 77.652344 C 131.644531 78.503906 131.890625 79.421875 131.890625 80.402344 Z M 131.890625 80.402344 " fill-opacity="1" fill-rule="nonzero"/></g></svg>