<svg xmlns="http://www.w3.org/2000/svg" xmlns:xlink="http://www.w3.org/1999/xlink" width="300" zoomAndPan="magnify" viewBox="0 0 224.87999 225" height="300" preserveAspectRatio="xMidYMid meet" version="1.0"><defs><clipPath id="id1"><path d="M 0 0.0585938 L 224.761719 0.0585938 L 224.761719 224.9375 L 0 224.9375 Z M 0 0.0585938 " clip-rule="nonzero"/></clipPath><clipPath id="id2"><path d="M 35.3125 35.375 L 189.089844 35.375 L 189.089844 189.152344 L 35.3125 189.152344 Z M 35.3125 35.375 " clip-rule="nonzero"/></clipPath><clipPath id="id3"><path d="M 71.78125 60.003906 L 152.71875 60.003906 L 152.71875 168.460938 L 71.78125 168.460938 Z M 71.78125 60.003906 " clip-rule="nonzero"/></clipPath></defs><g clip-path="url(#id1)"><path fill="#ffffff" d="M 0 0.0585938 L 224.878906 0.0585938 L 224.878906 457.316406 L 0 457.316406 Z M 0 0.0585938 " fill-opacity="1" fill-rule="nonzero"/><path fill="#ffffff" d="M 0 0.0585938 L 224.878906 0.0585938 L 224.878906 224.941406 L 0 224.941406 Z M 0 0.0585938 " fill-opacity="1" fill-rule="nonzero"/><path fill="#ffffff" d="M 0 0.0585938 L 224.878906 0.0585938 L 224.878906 224.941406 L 0 224.941406 Z M 0 0.0585938 " fill-opacity="1" fill-rule="nonzero"/></g><g clip-path="url(#id2)"><path fill="#234075" d="M 112.203125 35.375 C 69.738281 35.375 35.3125 69.796875 35.3125 112.261719 C 35.3125 154.726562 69.738281 189.152344 112.203125 189.152344 C 154.667969 189.152344 189.089844 154.726562 189.089844 112.261719 C 189.089844 69.796875 154.667969 35.375 112.203125 35.375 " fill-opacity="1" fill-rule="nonzero"/></g><g clip-path="url(#id3)"><path fill="#ffffff" d="M 148.214844 96.15625 C 145.757812 96.15625 143.71875 98.203125 143.71875 100.675781 L 143.71875 118.75 C 143.738281 137.867188 130.707031 154.65625 112.25 159.28125 C 93.808594 154.65625 80.761719 137.867188 80.78125 118.75 L 80.78125 87.117188 L 83.152344 87.117188 C 94.496094 87.152344 105.242188 81.910156 112.25 72.945312 C 119.257812 81.910156 130.003906 87.152344 141.347656 87.117188 L 148.214844 87.117188 C 150.675781 87.117188 152.710938 85.070312 152.710938 82.601562 C 152.710938 80.128906 150.675781 78.082031 148.214844 78.082031 L 141.347656 78.082031 C 130.742188 78.117188 120.976562 72.0625 116.273438 62.511719 C 115.429688 61.082031 113.882812 60.199219 112.25 60.199219 C 110.597656 60.199219 109.070312 61.082031 108.226562 62.511719 C 103.503906 72.0625 93.757812 78.117188 83.152344 78.082031 L 76.285156 78.082031 C 73.808594 78.082031 71.789062 80.128906 71.789062 82.601562 L 71.789062 118.75 C 71.753906 142 87.628906 162.441406 110.089844 168.054688 L 111.160156 168.316406 C 111.863281 168.511719 112.617188 168.511719 113.339844 168.316406 L 114.410156 168.054688 C 136.855469 162.441406 152.730469 142 152.695312 118.75 L 152.695312 100.675781 C 152.695312 98.203125 150.675781 96.15625 148.199219 96.15625 " fill-opacity="1" fill-rule="nonzero"/></g><path fill="#ffffff" d="M 122.558594 106.519531 L 107.753906 121.398438 L 101.941406 115.554688 C 101.097656 114.742188 99.972656 114.285156 98.816406 114.285156 C 96.355469 114.285156 94.320312 116.332031 94.320312 118.804688 C 94.320312 119.96875 94.777344 121.097656 95.585938 121.945312 L 104.574219 130.984375 C 105.417969 131.832031 106.558594 132.308594 107.753906 132.308594 C 108.949219 132.308594 110.089844 131.832031 110.933594 130.984375 L 128.914062 112.910156 C 129.722656 112.0625 130.179688 110.929688 130.179688 109.765625 C 130.179688 107.296875 128.144531 105.246094 125.683594 105.246094 C 124.527344 105.246094 123.402344 105.707031 122.558594 106.519531 " fill-opacity="1" fill-rule="nonzero"/></svg>