<svg xmlns="http://www.w3.org/2000/svg" xmlns:xlink="http://www.w3.org/1999/xlink" width="300" zoomAndPan="magnify" viewBox="0 0 224.87999 225" height="300" preserveAspectRatio="xMidYMid meet" version="1.0"><defs><clipPath id="id1"><path d="M 75.574219 75.632812 L 149.035156 75.632812 L 149.035156 149.09375 L 75.574219 149.09375 Z M 75.574219 75.632812 " clip-rule="nonzero"/></clipPath><clipPath id="id2"><path d="M 75.574219 75.632812 L 149.035156 75.632812 L 149.035156 149.09375 L 75.574219 149.09375 Z M 75.574219 75.632812 " clip-rule="nonzero"/></clipPath><clipPath id="id3"><path d="M 112.304688 75.632812 C 92.019531 75.632812 75.574219 92.078125 75.574219 112.363281 C 75.574219 132.652344 92.019531 149.09375 112.304688 149.09375 C 132.589844 149.09375 149.035156 132.652344 149.035156 112.363281 C 149.035156 92.078125 132.589844 75.632812 112.304688 75.632812 " clip-rule="nonzero"/></clipPath><clipPath id="id4"><path d="M 91.253906 127 L 98 127 L 98 129.824219 L 91.253906 129.824219 Z M 91.253906 127 " clip-rule="nonzero"/></clipPath><clipPath id="id5"><path d="M 121 103 L 128 103 L 128 129.824219 L 121 129.824219 Z M 121 103 " clip-rule="nonzero"/></clipPath><clipPath id="id6"><path d="M 101 115 L 108 115 L 108 129.824219 L 101 129.824219 Z M 101 115 " clip-rule="nonzero"/></clipPath><clipPath id="id7"><path d="M 111 116 L 118 116 L 118 129.824219 L 111 129.824219 Z M 111 116 " clip-rule="nonzero"/></clipPath><clipPath id="id8"><path d="M 91.253906 95.34375 L 130.980469 95.34375 L 130.980469 128 L 91.253906 128 Z M 91.253906 95.34375 " clip-rule="nonzero"/></clipPath></defs><g clip-path="url(#id1)"><path fill="#00a2ff" d="M 112.304688 75.632812 C 92.019531 75.632812 75.574219 92.078125 75.574219 112.363281 C 75.574219 132.652344 92.019531 149.09375 112.304688 149.09375 C 132.589844 149.09375 149.035156 132.652344 149.035156 112.363281 C 149.035156 92.078125 132.589844 75.632812 112.304688 75.632812 " fill-opacity="1" fill-rule="nonzero"/></g><g clip-path="url(#id2)"><g clip-path="url(#id3)"><path stroke-linecap="butt" transform="matrix(0.746861, 0, 0, 0.746861, 75.574255, 75.634388)" fill="none" stroke-linejoin="miter" d="M 49.179737 -0.00210928 C 22.019189 -0.00210928 -0.0000489506 22.017129 -0.0000489506 49.177676 C -0.0000489506 76.343454 22.019189 98.357462 49.179737 98.357462 C 76.340284 98.357462 98.359522 76.343454 98.359522 49.177676 C 98.359522 22.017129 76.340284 -0.00210928 49.179737 -0.00210928 " stroke="#d9d9d9" stroke-width="14" stroke-opacity="1" stroke-miterlimit="4"/></g></g><g clip-path="url(#id4)"><path fill="#ffffff" d="M 91.425781 128.402344 L 91.425781 129.859375 L 97.65625 129.859375 L 97.65625 127.449219 C 96.078125 128.140625 94.445312 128.492188 92.796875 128.492188 C 92.328125 128.492188 91.871094 128.460938 91.425781 128.402344 " fill-opacity="1" fill-rule="nonzero"/></g><g clip-path="url(#id5)"><path fill="#ffffff" d="M 121.574219 129.859375 L 127.800781 129.859375 L 127.800781 103.136719 L 121.574219 111.609375 L 121.574219 129.859375 " fill-opacity="1" fill-rule="nonzero"/></g><g clip-path="url(#id6)"><path fill="#ffffff" d="M 102.269531 124.242188 C 102.011719 124.5 101.746094 124.746094 101.476562 124.980469 L 101.476562 129.859375 L 107.703125 129.859375 L 107.703125 115.734375 L 107.6875 115.714844 C 106.191406 119.285156 104.371094 122.144531 102.269531 124.242188 " fill-opacity="1" fill-rule="nonzero"/></g><g clip-path="url(#id7)"><path fill="#ffffff" d="M 111.527344 120.269531 L 111.527344 129.859375 L 117.753906 129.859375 L 117.753906 116.808594 L 113.496094 122.605469 L 111.527344 120.269531 " fill-opacity="1" fill-rule="nonzero"/></g><g clip-path="url(#id8)"><path fill="#ffffff" d="M 130.695312 95.375 L 127.800781 96.113281 L 124.394531 96.984375 L 126.527344 98.632812 L 124.644531 101.191406 L 121.574219 105.371094 L 117.753906 110.570312 L 113.296875 116.632812 L 111.527344 114.53125 L 109.585938 112.230469 L 107.703125 109.996094 L 106.335938 108.371094 L 105.640625 110.585938 C 104.820312 113.199219 103.90625 115.339844 102.953125 117.09375 C 102.46875 117.980469 101.976562 118.769531 101.476562 119.46875 C 100.199219 121.257812 98.890625 122.464844 97.65625 123.265625 C 95.519531 124.65625 93.609375 124.839844 92.46875 124.78125 C 91.941406 124.753906 91.574219 124.675781 91.425781 124.636719 L 91.425781 127.25 C 91.78125 127.300781 92.25 127.347656 92.796875 127.347656 C 93.984375 127.347656 95.570312 127.140625 97.324219 126.351562 C 97.4375 126.300781 97.546875 126.242188 97.65625 126.1875 C 99.023438 125.523438 100.296875 124.601562 101.476562 123.425781 C 103.714844 121.195312 105.609375 118.050781 107.144531 114.019531 C 107.207031 113.855469 107.273438 113.695312 107.332031 113.527344 L 107.703125 113.96875 L 111.527344 118.503906 L 113.433594 120.765625 L 117.753906 114.890625 L 121.574219 109.691406 L 127.800781 101.214844 L 128.550781 100.199219 L 130.808594 101.941406 L 130.695312 95.375 " fill-opacity="1" fill-rule="nonzero"/></g></svg>