<svg xmlns="http://www.w3.org/2000/svg" xmlns:xlink="http://www.w3.org/1999/xlink" width="300" zoomAndPan="magnify" viewBox="0 0 224.87999 225" height="300" preserveAspectRatio="xMidYMid meet" version="1.0"><defs><clipPath id="id1"><path d="M 75.574219 75.632812 L 149.035156 75.632812 L 149.035156 149.09375 L 75.574219 149.09375 Z M 75.574219 75.632812 " clip-rule="nonzero"/></clipPath><clipPath id="id2"><path d="M 75.574219 75.632812 L 149.035156 75.632812 L 149.035156 149.09375 L 75.574219 149.09375 Z M 75.574219 75.632812 " clip-rule="nonzero"/></clipPath><clipPath id="id3"><path d="M 112.304688 75.632812 C 92.019531 75.632812 75.574219 92.078125 75.574219 112.363281 C 75.574219 132.648438 92.019531 149.09375 112.304688 149.09375 C 132.589844 149.09375 149.035156 132.648438 149.035156 112.363281 C 149.035156 92.078125 132.589844 75.632812 112.304688 75.632812 " clip-rule="nonzero"/></clipPath><clipPath id="id4"><path d="M 96.101562 102.136719 L 129.074219 102.136719 L 129.074219 137.089844 L 96.101562 137.089844 Z M 96.101562 102.136719 " clip-rule="nonzero"/></clipPath><clipPath id="id5"><path d="M 100 87.78125 L 125 87.78125 L 125 107 L 100 107 Z M 100 87.78125 " clip-rule="nonzero"/></clipPath></defs><g clip-path="url(#id1)"><path fill="#96c230" d="M 112.304688 75.632812 C 92.019531 75.632812 75.574219 92.078125 75.574219 112.363281 C 75.574219 132.648438 92.019531 149.09375 112.304688 149.09375 C 132.589844 149.09375 149.035156 132.648438 149.035156 112.363281 C 149.035156 92.078125 132.589844 75.632812 112.304688 75.632812 " fill-opacity="1" fill-rule="nonzero"/></g><g clip-path="url(#id2)"><g clip-path="url(#id3)"><path stroke-linecap="butt" transform="matrix(0.746861, 0, 0, 0.746861, 75.574255, 75.63427)" fill="none" stroke-linejoin="miter" d="M 49.179737 -0.00195191 C 22.019189 -0.00195191 -0.0000489506 22.017286 -0.0000489506 49.177834 C -0.0000489506 76.338381 22.019189 98.357619 49.179737 98.357619 C 76.340284 98.357619 98.359522 76.338381 98.359522 49.177834 C 98.359522 22.017286 76.340284 -0.00195191 49.179737 -0.00195191 " stroke="#d9d9d9" stroke-width="14" stroke-opacity="1" stroke-miterlimit="4"/></g></g><g clip-path="url(#id4)"><path fill="#ffffff" d="M 117.101562 131.3125 C 116.171875 132.085938 115.148438 132.820312 114.011719 133.5 C 113.128906 134.023438 112.019531 134.015625 111.117188 133.472656 C 110.027344 132.820312 109.011719 132.105469 108.058594 131.3125 C 106.683594 130.175781 105.457031 128.886719 104.382812 127.460938 C 104.425781 127.246094 104.472656 127.035156 104.523438 126.824219 C 105.027344 124.742188 106.835938 123.203125 109.003906 122.980469 C 109.066406 122.976562 109.128906 122.972656 109.191406 122.964844 C 110.144531 123.777344 111.292969 124.304688 112.589844 124.304688 C 113.882812 124.304688 115.03125 123.777344 115.988281 122.964844 C 116.050781 122.972656 116.109375 122.976562 116.175781 122.980469 C 118.339844 123.203125 120.148438 124.742188 120.652344 126.824219 C 120.703125 127.03125 120.75 127.238281 120.789062 127.445312 C 119.777344 128.785156 118.558594 130.097656 117.101562 131.3125 Z M 112.589844 110.8125 C 115.109375 110.8125 117.15625 112.660156 117.15625 115.144531 C 117.15625 117.628906 115.109375 121.144531 112.589844 121.144531 C 110.0625 121.144531 108.015625 117.628906 108.015625 115.144531 C 108.015625 112.660156 110.0625 110.8125 112.589844 110.8125 Z M 127.566406 109.820312 C 123.773438 109.542969 120.480469 108.011719 117.785156 105.265625 C 115.753906 103.207031 114.007812 102.164062 112.585938 102.164062 C 111.167969 102.164062 109.417969 103.207031 107.394531 105.265625 C 104.695312 108.011719 101.402344 109.542969 97.609375 109.820312 C 96.757812 109.882812 96.101562 110.578125 96.101562 111.417969 L 96.101562 114.234375 C 96.101562 114.261719 96.101562 114.289062 96.105469 114.3125 C 96.128906 114.765625 96.382812 118.855469 98.429688 123.605469 C 100.765625 129.007812 104.464844 133.25 109.425781 136.210938 C 110.40625 136.796875 111.503906 137.089844 112.597656 137.089844 C 113.671875 137.089844 114.746094 136.808594 115.699219 136.238281 C 128.128906 128.820312 129.011719 115.75 129.074219 114.285156 L 129.074219 111.417969 C 129.074219 110.578125 128.417969 109.882812 127.566406 109.820312 " fill-opacity="1" fill-rule="nonzero"/></g><g clip-path="url(#id5)"><path fill="#ffffff" d="M 104.292969 99.960938 C 104.292969 95.460938 108.015625 91.796875 112.585938 91.796875 C 117.164062 91.796875 120.882812 95.460938 120.882812 99.960938 L 120.882812 103.757812 C 122.070312 104.796875 123.367188 105.550781 124.789062 106.027344 L 124.789062 99.960938 C 124.789062 93.339844 119.316406 87.957031 112.585938 87.957031 C 105.859375 87.957031 100.386719 93.339844 100.386719 99.960938 L 100.386719 106.027344 C 101.808594 105.546875 103.105469 104.796875 104.292969 103.757812 L 104.292969 99.960938 " fill-opacity="1" fill-rule="nonzero"/></g></svg>