<svg clip-rule="evenodd" fill-rule="evenodd" stroke-linejoin="round" stroke-miterlimit="1.41421" viewBox="0 0 825 205" xmlns="http://www.w3.org/2000/svg"><path d="m0 129.539c44.702 0 106.539 25.17 151.407 25.17 32.018 0 63.261-8.545 81.044-21.127 1.242-7.389 1.9-14.975 1.9-22.717 0-75.13-60.907-136.035-136.037-136.035s-136.036 60.905-136.036 136.035c0 7.653.642 15.153 1.857 22.461 4.903-.908 21.574-3.787 35.865-3.787" fill="#fff" fill-rule="nonzero" transform="translate(46.943 33.2741)"/><path d="m415.397 70.22h314.664v3.815h-314.664z" fill="#e3a82b" transform="matrix(-1 0 0 1 1082.813 119.2505)"/><g fill-rule="nonzero"><path d="m0 28.483c0 3.108.191 7.509 2.012 9.409 1.821 1.985 4.696 2.416 7.57 2.416 8.526 0 15.041-3.451 15.041-12.083 0-6.819-3.832-14.761-19.065-14.761-5.174 0-5.558.518-5.558 2.244zm0-20.026c0 2.419.096 2.59 4.982 2.419 9.772-.347 15.043-2.937 15.043-11.05 0-8.459-6.996-11.653-14.275-11.653-2.109 0-3.547.173-4.408.518-.958.259-1.342.692-1.342 2.243zm-7.856-11.479c0-6.387-.451-8.079-4.762-8.426l-2.999-.206c-.488-.388-.35-2.118.096-2.158 5.171-.461 11.689-.69 20.599-.69 6.036 0 11.785.431 16.098 2.416 4.119 1.813 7.281 5.265 7.281 10.789 0 6.216-4.025 9.41-9.773 11.826 0 .863.767 1.123 1.82 1.294 5.174.865 12.838 5.18 12.838 14.416 0 10.013-8.238 16.746-25.486 16.746-2.778 0-7.472-.26-11.497-.26-4.215 0-7.472.175-11.018.26-.575-.26-.767-1.64-.192-2.159l1.726-.259c5.076-.777 5.269-1.726 5.269-10.789z" fill="#fff" transform="translate(368.675 56.1565)"/><path d="m0-26.248c0-7.815-.164-9.068-4.992-9.436l-2.047-.148c-.492-.295-.326-1.623.164-1.844 4.092.147 6.875.221 10.311.221 3.275 0 6.056-.074 10.148-.221.492.221.654 1.549.164 1.844l-2.045.148c-4.83.368-4.992 1.621-4.992 9.436v26.249c0 7.814.162 8.847 4.992 9.364l2.045.22c.49.295.328 1.621-.164 1.843-4.092-.148-6.873-.222-10.148-.222-3.436 0-6.219.074-10.311.222-.49-.222-.656-1.401-.164-1.843l2.047-.22c4.828-.517 4.992-1.55 4.992-9.364z" fill="#fff" transform="translate(468.611 87.8785)"/><path d="m0 28.829c0 7.741.152 8.847 4.602 9.216l2.453.221c.459.294.306 1.62-.153 1.843-4.371-.148-6.978-.223-10.047-.223-3.066 0-5.75.075-10.656.223-.461-.223-.615-1.474 0-1.843l2.76-.221c4.371-.369 4.752-1.475 4.752-9.216v-32.959c0-2.285 0-2.357-2.299-2.357h-4.217c-3.297 0-7.513.147-9.431 1.842-1.84 1.622-2.608 3.245-3.45 5.087-.615.443-1.687.074-1.994-.516 1.225-3.317 2.377-8.036 2.912-10.985.233-.147 1.229-.221 1.457 0 .461 2.358 2.993 2.285 6.52 2.285h31.053c4.14 0 4.83-.147 5.98-2.064.385-.147 1.229-.073 1.381.22-.844 3.025-1.381 8.996-1.15 11.208-.307.59-1.61.59-1.993.148-.23-1.845-.767-4.572-1.918-5.383-1.763-1.255-4.675-1.842-8.894-1.842h-5.443c-2.301 0-2.225.072-2.225 2.505z" fill="#fff" transform="translate(514.013 59.1975)"/><path d="m0-26.248c0-7.815-.164-9.068-4.992-9.436l-2.047-.148c-.49-.295-.326-1.623.164-1.844 4.092.147 6.875.221 10.313.221 3.273 0 6.054-.074 10.146-.221.492.221.656 1.549.166 1.844l-2.049.148c-4.828.368-4.99 1.621-4.99 9.436v26.249c0 7.814.162 8.847 4.99 9.364l2.049.22c.49.295.326 1.621-.166 1.843-4.092-.148-6.873-.222-10.146-.222-3.438 0-6.221.074-10.313.222-.49-.222-.654-1.401-.164-1.843l2.047-.22c4.828-.517 4.992-1.55 4.992-9.364z" fill="#fff" transform="translate(546.878 87.8785)"/><path d="m0 51.021c-7.309 0-11.92-1.917-13.572-2.727-1.045-1.623-2.176-6.857-2.35-10.323.436-.516 1.74-.663 2.088-.221 1.307 3.76 4.873 10.984 14.965 10.984 7.308 0 10.875-4.054 10.875-8.478 0-3.243-.783-6.856-7.135-10.322l-8.264-4.572c-4.349-2.432-9.396-6.635-9.396-12.68 0-7.005 6.437-12.682 17.748-12.682 2.695 0 5.828.442 8.09.958 1.131.295 2.349.442 3.045.442.783 1.772 1.568 5.9 1.568 8.996-.35.443-1.742.663-2.176.221-1.131-3.538-3.48-8.331-11.832-8.331-8.527 0-10.353 4.793-10.353 8.183 0 4.277 4.176 7.375 7.394 9.07l6.959 3.686c5.483 2.875 10.877 7.151 10.877 14.156 0 8.11-7.22 13.64-18.531 13.64" fill="#fff" transform="translate(583.552 49.0405)"/><path d="m0 1.032c-3.807 0-3.965.147-3.965 2.359v10.397c0 7.741.397 8.774 4.84 9.217l2.299.22c.476.295.318 1.62-.158 1.843-4.284-.148-6.981-.223-10.077-.223-3.412 0-6.109.148-9.203.223-.474-.223-.634-1.401-.158-1.843l1.348-.22c4.445-.738 4.601-1.476 4.601-9.217v-26.543c0-7.742-.552-8.994-4.679-9.289l-2.063-.148c-.476-.295-.318-1.623.158-1.844 3.887.074 6.584.221 9.996.221 3.096 0 5.793-.074 9.204-.221.476.221.634 1.549.16 1.844l-1.51.148c-4.6.442-4.758 1.547-4.758 9.289v8.478c0 2.285.158 2.36 3.965 2.36h22.691c3.809 0 3.967-.075 3.967-2.36v-8.478c0-7.742-.158-8.847-4.838-9.289l-1.508-.148c-.476-.295-.318-1.623.159-1.844 3.65.147 6.347.221 9.599.221 3.094 0 5.791-.074 9.362-.221.476.221.634 1.549.158 1.844l-1.664.148c-4.602.442-4.762 1.547-4.762 9.289v26.543c0 7.741.16 8.7 4.762 9.217l1.904.22c.475.295.316 1.62-.158 1.843-3.811-.148-6.508-.223-9.602-.223-3.252 0-6.109.075-9.599.223-.477-.223-.635-1.401-.159-1.843l1.508-.22c4.838-.738 4.838-1.476 4.838-9.217v-10.397c0-2.212-.158-2.359-3.967-2.359z" fill="#fff" transform="translate(627.341 74.2385)"/><path d="m0-46.469c6.521-5.073 14.829-7.565 24.12-7.565 4.823 0 11.611.978 15.811 2.136 1.072.267 1.697.446 2.501.356.089 2.048.536 7.654 1.25 13.085-.446.623-1.786.713-2.411.179-1.34-6.053-5.36-12.998-18.313-12.998-13.668 0-25.281 8.636-25.281 27.062 0 18.693 11.881 29.02 26.531 29.02 11.523 0 16.616-7.478 18.67-12.731.626-.443 1.967-.267 2.323.357-.624 4.629-2.948 10.503-4.288 12.196-1.072.178-2.143.534-3.126.888-1.966.715-8.397 2.049-14.115 2.049-8.039 0-15.721-1.601-22.243-5.965-7.147-4.896-12.685-12.994-12.685-24.477 0-9.883 4.467-18.339 11.256-23.592" fill="#fff" transform="translate(315.412 161.9755)"/><path d="m0 4.129c0-12.166-5.65-25.29-20.437-25.29-8.051 0-18.501 5.235-18.501 21.383 0 10.911 5.573 25.068 20.823 25.068 9.291 0 18.115-6.636 18.115-21.161m-46.681-1.549c0-14.746 11.613-26.026 27.561-26.026 17.882 0 26.862 12.312 26.862 25.289 0 14.894-11.922 25.732-26.862 25.732-17.186 0-27.561-11.724-27.561-24.995" fill="#fff" transform="translate(410.949 141.7205)"/><path d="m0-12.606c0-4.571-.156-13.052-1.486-15.262-.547-.885-1.953-1.402-3.907-1.55l-1.953-.147c-.468-.516-.314-1.474.155-1.77 2.97.147 5.863.222 8.91.222 3.283 0 5.394-.075 8.207-.22.625.369.547 1.326.156 1.768l-1.877.147c-1.953.148-3.439.812-3.906 1.771-1.094 2.432-1.094 10.912-1.094 15.041v8.331c0 6.416-1.096 13.198-5.471 17.621-3.361 3.466-9.144 5.383-14.927 5.383-5.393 0-10.786-.959-14.616-4.055-4.142-3.243-6.095-8.626-6.095-17.399v-17.402c0-7.667-.157-8.921-4.688-9.291l-1.955-.147c-.469-.295-.314-1.547.154-1.77 3.911.147 6.567.222 9.694.222 3.203 0 5.783-.075 9.611-.22.469.221.627 1.473.158 1.768l-1.877.147c-4.533.37-4.689 1.624-4.689 9.291v15.926c0 11.87 3.908 19.687 15.865 19.687 11.332 0 15.631-8.407 15.631-19.612z" fill="#fff" transform="translate(506.031 150.5665)"/><path d="m0 24.575c0 2.681.172 6.478 1.812 8.117 1.643 1.713 4.235 2.085 6.825 2.085 7.689 0 13.562-2.979 13.562-10.426 0-5.883-3.455-12.732-17.189-12.732-4.666 0-5.01.444-5.01 1.935zm0-17.278c0 2.087.086 2.235 4.49 2.087 8.813-.298 13.563-2.532 13.563-9.533 0-7.298-6.305-10.054-12.871-10.054-1.901 0-3.196.149-3.973.448-.865.223-1.209.595-1.209 1.935zm-7.084-9.903c0-5.511-.346-6.926-4.232-7.223l-2.766-.269c-.314-.284-.482-1.776.086-1.818 4.666-.349 10.539-.594 18.574-.594 5.442 0 10.623.372 14.512 2.083 3.715 1.565 6.564 4.544 6.564 9.311 0 5.36-3.629 8.117-8.81 10.202 0 .745.689.968 1.64 1.117 4.666.744 11.577 4.469 11.577 12.435 0 8.638-7.43 14.447-22.979 14.447-2.504 0-6.738-.223-10.365-.223-3.801 0-6.738.148-9.934.223-.519-.223-.693-1.414-.174-1.86l1.555-.224c4.58-.67 4.752-1.49 4.752-9.308z" fill="#fff" transform="translate(603.953 131.3565)"/><path d="m0-2.505c-1.486 0-4.457.553-4.457-1.42v-14.143c0-5.529.176-6.32 6.816-6.32 7.776 0 12.582 3.949 12.582 11.217 0 3.161-1.136 6.084-4.019 8.059-3.32 2.292-6.904 2.607-10.922 2.607m29.828 24.228-2.047-.177c-.414-.044-.781-.096-1.131-.154-2.994-.53-4.193-3.196-5.603-5.67l-7.076-12.325c-1.223-2.054-2.533-4.819-5.33-5.213 7.252-.87 13.806-5.056 13.806-12.245 0-8.297-8.215-12.009-16.515-12.009-4.981 0-9.52.135-14.588.135-2.795 0-6.121-.135-8.916-.135-1.553 0-1.573.316-1.573 1.185 0 1.282.541.923 2.186 1.016 5.904.332 5.678 1.433 5.678 6.489v32.313c0 4.624.4 6.005-4.455 6.44 0 0-.744.077-1.166.122l-2.057.211c-.492.441-.326 1.621.164 1.842 1.094-.04 3.033-.116 3.033-.116 2.688-.08 5.375-.285 8.063-.285 2.703 0 5.289.208 7.947.286v.002c.943.03 1.94.063 3.031.102.492-.221.657-1.4.164-1.842l-2.07-.196c-.422-.045-1.148-.11-1.148-.11-4.903-.332-4.602-1.715-4.602-6.456v-12.167c0-.711-.09-2.606.436-3.16.437-.476 1.222-.396 1.921-.396 6.643 0 6.553.633 9.7 6.163l8.562 15.405c.699 1.186 1.223 2.686 2.973 2.686h7.437c.938.03 1.924.061 3.012.101.49-.221.654-1.401.164-1.842" fill="#fff" transform="translate(426.273 75.7415)"/><path d="m0-26.541c0-7.741-.162-8.923-5.27-9.291l-2.029-.147c-.486-.295-.324-1.621.162-1.844 4.543.148 7.299.221 10.543.221 3.164 0 5.92-.073 9.977-.218.486.22.648 1.546.162 1.841l-1.947.147c-4.784.368-4.948 1.55-4.948 9.291v25.659c0 4.645.245 6.562 1.704 7.962.892.81 2.433 1.696 8.839 1.696 6.895 0 8.598-.296 9.897-.958 1.621-.886 3.73-3.539 5.351-7.3.489-.367 2.028-.075 2.028.442 0 .812-2.272 8.333-3.407 10.322-4.134-.147-11.841-.221-20.195-.221h-7.461c-3.406 0-6 .074-10.543.221-.486-.221-.648-1.401-.162-1.843l2.434-.22c4.703-.443 4.865-1.476 4.865-9.216z" fill="#fff" transform="translate(427.876 157.2315)"/><path d="m0-26.248c0-7.814-.158-9.069-4.855-9.438l-1.993-.146c-.476-.296-.318-1.621.162-1.845 3.979.149 6.686.222 10.032.222 3.185 0 5.892-.073 9.875-.219.476.221.636 1.546.158 1.842l-1.992.146c-4.698.369-4.856 1.624-4.856 9.438v26.25c0 7.815.158 8.847 4.856 9.363l1.992.221c.478.295.318 1.621-.158 1.843-3.983-.148-6.69-.222-9.875-.222-3.346 0-6.053.074-10.032.222-.48-.222-.638-1.402-.162-1.843l1.993-.221c4.697-.516 4.855-1.548 4.855-9.363z" fill="#fff" transform="translate(645.14 157.0845)"/><path d="m0 45.012c-.408-.044-1.172-.104-1.172-.104-.838-.084-1.592-.205-2.187-.855-1.034-1.098-.948-4.226-.948-5.478v-32.307c0-1.409-.343-4.459.69-5.556.517-.577 1.592-.674 2.549-.728v-.004c.582-.044.595-.046 1.105-.071l2.047-.146c.49-.296.326-1.622-.164-1.844-1.094.038-2.088.024-3.033.053v.004h-8.7c-.947 0-1.808 0-2.324 1.017l-17.726 36.923-15.658-35.671c-.518-1.252-.602-2.269-2.239-2.269h-9.054c-.944-.029-1.985-.019-3.079-.057-.49.222-.656 1.548-.164 1.844l2.047.146c.422.034 1.186.086 1.186.086 3.396.218 3.607.977 3.299 4.552l-2.668 34.653c-.233 3.48-.424 5.319-4.069 5.658 0 0-.769.096-1.193.141l-2.045.222c-.492.44-.328 1.62.164 1.841 1.078-.04 2.996-.096 2.996-.096 1.848-.091 3.729-.255 5.611-.255 2.03 0 4.063.192 6.096.273v.004c.942.029 1.938.062 3.031.1.493-.221.657-1.4.164-1.842l-2.044-.221c-.539-.042-1.143-.102-1.143-.102-5.26-.36-5.143-4.073-4.814-8.615l2.496-32.229h.603l16.951 39.66c.17.547.428 1.486 1.289 1.486.776 0 1.034-.859 1.291-1.409l19.102-40.679h.603v35.438c0 1.408.172 4.303-1.291 5.397-.763.569-3.25.911-3.25.911-.341.054-.701.104-1.109.147l-2.045.22c-.492.442-.328 1.621.164 1.843 1.078-.039 2.99-.099 2.99-.099 2.774-.077 5.592-.283 8.413-.283 2.027 0 5.998.193 5.998.193.945.029 2.023.132 3.117.171.492-.221.656-1.4.164-1.841z" fill="#fff" transform="translate(581.511 121.4205)"/><path d="m0 9.582h-9.574c-.334 0-2.998.313-2.998-.468 0-.235.166-.704.25-.937l5.746-14.228c.166-.391.748-2.346 1.414-2.346.5 0 1.166 2.033 1.332 2.346l5.662 13.288c0 .157.582 1.408.582 1.721 0 .86-1.914.624-2.414.624m21.494 18.25-.275-.221c-.408-.043-.772-.092-1.114-.149-3.189-.712-4.431-4.552-5.609-7.288l-16.408-38.834c-.164-.466-.488-1.471-1.139-1.471-.894 0-1.136 1.083-1.381 1.7l-15.675 38.76c-.571 1.47-2.032 5.031-3.088 6.111-.809.829-1.864.988-2.987 1.104 0 0-.884.084-1.306.13l-1.928.196c-.49.441-.326 1.621.164 1.843 1.094-.039 3.033-.11 3.033-.11 2.145-.029 4.289-.3 6.436-.3 1.806 0 3.611.192 5.414.272 0 0 1.939.069 3.033.111.49-.223.654-1.403.164-1.844l-2.047-.222c-.406-.042-1.109-.108-1.109-.108-1.887-.209-4.236-.546-4.236-2.62 0-1.392.65-3.017 1.136-4.255l2.436-5.8c1.221-2.784.732-3.096 3.98-3.096h11.049c3.899 0 3.328 0 5.037 3.948l2.598 5.876c.406 1.008 1.137 2.709 1.137 3.795 0 1.943-2.123 2.071-4.106 2.239 0 0-.658.055-1.228.099l-1.969.143c-.49.441-.326 1.621.166 1.843 1.092-.04 3.031-.119 3.031-.119 2.311-.084 4.637-.262 6.867-.262 2.846 0 5.692.193 8.535.274v-.003c.934.029.145.062 1.225.101.49-.222.654-1.402.164-1.843" fill="#fff" transform="translate(692.992 138.8005)"/><path d="m0 3.86 5.379 2.23 11.929-8.32z" fill="#e3a82b" transform="translate(233.239 108.8045)"/><path d="m0 84.581-14.139-4.975.709-1.732 15.923 5.309.069-.039 2.101-1.191.838-.525-17.363-7.386.734-1.816 38.754 15.674 1.278-.53-38.435-18.73.857-1.76 40.73 18.956.563-.286-39.492-22.4.811-1.682 57.029 31.031c.467-.863 1.445-2.436 1.947-3.282-21.682-20.386-42.605-35.692-42.605-35.692s21.517 14.41 48.073 27.807c.877-1.095 1.597-1.974 2.534-3.013l-48.652-42.832 1.306-1.341 39.267 33.467-36.379-36.431 1.362-1.41 40.844 39.473-38.02-42.199 1.454-1.311 35.14 37.628-32.073-40.412 1.381-1.256 41.112 50.032c1.063-.917 1.946-1.607 3.058-2.459-12.436-26.912-26.017-48.804-26.017-48.804s14.455 21.278 33.958 43.562c1.191-.671 2.399-1.314 3.633-1.919l-.207-.134-28.812-57.501 1.713-.753 23.871 45.738-20.083-47.407 1.791-.795 23.083 51.898-19.445-53.369 1.84-.671 18.486 48.053-14.6-49.485 1.753-.646 19.22 61.376-.037.162.048-.019c1.278-.429 2.578-.807 3.885-1.163-1.463-29.48-5.824-54.698-5.824-54.698s5.4 24.996 15.082 52.867c1.348-.166 2.705-.307 4.073-.399l-.043-.064h.168l-.096-.141-5.174-64.106 1.87-.059 4.998 51.352-.859-51.478 1.956-.066 1.962 56.766 1.96-56.767 1.96.067-.861 51.478 4.999-51.351 1.869.058-5.174 64.106-.097.141h.028l-.014.02h.085c1.338.084 2.665.218 3.982.376 9.669-27.844 15.06-52.8 15.06-52.8s-4.348 25.142-5.818 54.568c1.32.349 2.626.732 3.913 1.154l19.152-61.163 1.755.647-14.602 49.485 18.488-48.053 1.838.672-19.446 53.368 23.083-51.899 1.793.796-20.084 47.408 23.872-45.739 1.712.753-28.71 57.295.049.02c1.183.576 2.341 1.191 3.487 1.827 19.419-22.213 33.791-43.368 33.791-43.368s-13.488 21.742-25.888 48.523c1.108.836 2.192 1.7 3.244 2.599l40.629-49.488 1.386 1.257-32.077 40.412 35.143-37.628 1.451 1.312-38.021 42.197 40.844-39.473 1.363 1.41-36.379 36.432 39.267-33.465 1.306 1.338-48.058 42.349.028.029c.839.935 1.647 1.9 2.44 2.88 26.388-13.343 47.712-27.623 47.712-27.623s-20.72 15.157-42.289 35.397c.591.986 1.545 2.67 2.09 3.686l56.221-30.611.813 1.685-44.879 25.453 46.678-21.723.856 1.76-43.478 21.186.834.291 44.241-17.894.735 1.817-41.122 17.491.769.319 27.402-9.135 4.13-2.883 1.371 1.047 9.017-3.006.709 1.73-7.801 2.745 11.271 8.601 3.612 2.014c-14.491-60.578-68.983-105.615-134.001-105.615-66.16 0-121.421 46.634-134.727 108.821.171-.083.336-.16.507-.244l1.651-.748 1.013-.473z" fill="#e3a82b" transform="translate(32.8076 18.7927)"/><path d="m0 46.548s20.325-4.059 37.291-4.059c44.702 0 106.539 25.171 151.407 25.171 32.914 0 65.016-9.029 82.511-22.193 1.367-7.788 2.083-15.798 2.083-23.978 0-11.078-1.315-21.847-3.785-32.17l-18.705-10.431-21.947 15.391-14.764-5.749c-4.998 2.526-35.834 23.147-35.834 23.147l-11.835-8.567-12.698-2.515-16.932-12.327-19.422 13.334s-21.669 12.582-22.413 12.582c-.748 0-26.144-20.133-26.144-20.133l-11.701-12.327c-1.993 1.258-9.952 4.91-9.952 4.91l-.409.108-7.702-2.382-9.353-4.961-28.41 12.882c-.171.084-.336.162-.507.245-1.999 9.339-3.059 19.027-3.059 28.963 0 8.558.786 16.933 2.28 25.059" fill="#65799e" transform="translate(9.8496 122.9685)"/></g></svg>